<?xml version="1.0" standalone="no"?><!DOCTYPE svg PUBLIC "-//W3C//DTD SVG 1.1//EN" "http://www.w3.org/Graphics/SVG/1.1/DTD/svg11.dtd"><svg t="1630578356796" class="icon" viewBox="0 0 1024 1024" version="1.1" xmlns="http://www.w3.org/2000/svg" p-id="2261" xmlns:xlink="http://www.w3.org/1999/xlink" width="200" height="200"><defs><style type="text/css"></style></defs><path d="M245.76 122.88h40.96v81.92H245.76zM737.28 122.88h40.96v81.92h-40.96z" p-id="2262" fill="#ffffff"></path><path d="M840.9088 942.08h-655.36A61.44 61.44 0 0 1 122.88 880.64v-614.4a61.0304 61.0304 0 0 1 17.6128-43.4176A62.2592 62.2592 0 0 1 184.7296 204.8h655.36A61.44 61.44 0 0 1 901.12 266.24v614.4a60.2112 60.2112 0 0 1-18.0224 43.4176 61.44 61.44 0 0 1-42.1888 18.0224zM184.7296 245.76a20.0704 20.0704 0 0 0-14.7456 6.144 20.48 20.48 0 0 0-6.144 14.336v614.4a20.48 20.48 0 0 0 20.48 20.48h655.36a20.0704 20.0704 0 0 0 14.7456-6.144 20.48 20.48 0 0 0 5.7344-14.336v-614.4a20.48 20.48 0 0 0-20.48-20.48z" p-id="2263" fill="#ffffff"></path><path d="M143.36 327.68h736.8704v40.96H143.36zM655.36 696.32h122.88v122.88h-122.88z" p-id="2264" fill="#ffffff"></path></svg>