<?xml version="1.0" encoding="utf-8"?>
<!-- Generator: Adobe Illustrator 25.4.1, SVG Export Plug-In . SVG Version: 6.00 Build 0)  -->
<svg version="1.1" id="圖層_1" xmlns="http://www.w3.org/2000/svg" xmlns:xlink="http://www.w3.org/1999/xlink" x="0px" y="0px"
	 viewBox="0 0 32.5 39.5" style="enable-background:new 0 0 32.5 39.5;" xml:space="preserve">
<style type="text/css">
	.st0{clip-path:url(#SVGID_00000039829260881104697170000016831060821270760584_);}
	.st1{fill:url(#Path_165_00000000182932383137733220000001489395584086853810_);}
	.st2{fill:url(#Path_172_00000132045870213204890760000018048717066509783697_);}
	.st3{fill:url(#Path_173_00000040533773157180245580000011694045122798431625_);}
	.st4{fill:url(#Path_174_00000155844339329995636310000015263369787232615846_);}
	.st5{fill:url(#Path_175_00000135650028895432400890000016542158110220191632_);}
	.st6{fill:url(#Path_176_00000144301981069617890140000016423108337445853365_);}
	.st7{fill:url(#Path_177_00000068655843156777055280000014629360492189306289_);}
	.st8{fill:url(#Path_178_00000146480945140444913370000015783400257877708702_);}
	.st9{fill:url(#Path_179_00000003102918246553248260000009396478744771474315_);}
	.st10{fill:url(#Path_180_00000098211310139314256560000006856010254162231437_);}
	.st11{fill:url(#Path_181_00000002380832323476379990000011682457920004916109_);}
	.st12{fill:#C1272D;}
</style>
<g>
	<defs>
		<circle id="SVGID_1_" cx="15.8" cy="13.2" r="17"/>
	</defs>
	<clipPath id="SVGID_00000166653883554515296170000000785624352801479099_">
		<use xlink:href="#SVGID_1_"  style="overflow:visible;"/>
	</clipPath>
	<g style="clip-path:url(#SVGID_00000166653883554515296170000000785624352801479099_);">
		<g id="Group_494">
			
				<linearGradient id="Path_165_00000090994784093133154720000009081034692306649235_" gradientUnits="userSpaceOnUse" x1="-363.0045" y1="-170.8548" x2="-362.004" y2="-170.8548" gradientTransform="matrix(32.47 0 0 14.43 11613.0205 2472.5999)">
				<stop  offset="0" style="stop-color:#A7DADF"/>
				<stop  offset="1" style="stop-color:#A7D9DE"/>
			</linearGradient>
			<path id="Path_165" style="fill:url(#Path_165_00000090994784093133154720000009081034692306649235_);" d="M32.5,4.6l-1.2,7.9
				c-0.1,0.6-0.5,1-1,0.9c-1.7-0.5-22.3-2.6-27.5,1c-0.5,0.3-1-0.1-1.1-0.8L0,4.7c-0.1-0.5,0.1-0.9,0.4-1.2c6.6-5.2,27.1-4,31.7-0.1
				C32.4,3.6,32.5,4.1,32.5,4.6z"/>
			<g id="Group_493">
				
					<linearGradient id="Path_172_00000158734981776352082700000013270239681278055079_" gradientUnits="userSpaceOnUse" x1="302.5891" y1="68.0414" x2="306.7691" y2="67.1814" gradientTransform="matrix(1.37 0 0 1.64 -250.11 -129.62)">
					<stop  offset="0" style="stop-color:#F1B375"/>
					<stop  offset="1" style="stop-color:#E9755E"/>
				</linearGradient>
				<path id="Path_172" style="fill:url(#Path_172_00000158734981776352082700000013270239681278055079_);" d="M17.1,18.8
					c0,0,0-1.3,0.6-1.4s1.1,0.3,0.6,1.1C17.7,19.3,17.1,18.8,17.1,18.8z"/>
				<g id="Group_492">
					
						<linearGradient id="Path_173_00000139988007038455469200000007877234698860130176_" gradientUnits="userSpaceOnUse" x1="-317.7545" y1="-178.1313" x2="-317.4945" y2="-175.1213" gradientTransform="matrix(12.4 0 0 17.96 3956.1699 3219.7803)">
						<stop  offset="0" style="stop-color:#F3EC4B"/>
						<stop  offset="1" style="stop-color:#CC3C61"/>
					</linearGradient>
					<path id="Path_173" style="fill:url(#Path_173_00000139988007038455469200000007877234698860130176_);" d="M22.3,22
						c0,0-6.9-1.1-12.4,0.4l0.4,5.6c0,0,1.5,7.9,2.5,11.3c0,0,4.2,0.7,6.2-0.4c0,0,1.6-9.9,2.6-11.3C22,25.8,22.3,23.9,22.3,22z"/>
					
						<linearGradient id="Path_174_00000181770738450618070210000007624514860168363180_" gradientUnits="userSpaceOnUse" x1="-197.1617" y1="-108.8787" x2="-196.1617" y2="-108.8787" gradientTransform="matrix(3.28 0 0 5.05 477.33 569.35)">
						<stop  offset="0" style="stop-color:#F1B375"/>
						<stop  offset="1" style="stop-color:#E9755E"/>
					</linearGradient>
					<path id="Path_174" style="fill:url(#Path_174_00000181770738450618070210000007624514860168363180_);" d="M17.5,17l0.7,4.7
						c0,0-1.9,0.9-3.3,0l0.3-3.3L17.5,17z"/>
					
						<linearGradient id="Path_175_00000161623759287897184380000014443215740829365410_" gradientUnits="userSpaceOnUse" x1="-148.2776" y1="-121.1003" x2="-146.8476" y2="-121.3603" gradientTransform="matrix(4.01 0 0 5.38 755.1001 634.42)">
						<stop  offset="0" style="stop-color:#F1B375"/>
						<stop  offset="1" style="stop-color:#E9755E"/>
					</linearGradient>
					<path id="Path_175" style="fill:url(#Path_175_00000161623759287897184380000014443215740829365410_);" d="M14.5,15.9
						c0,0-0.4,2.4-0.7,3.9c-0.1,0.5,0.2,1.1,0.8,1.2c0,0,0,0,0.1,0h0.1h0.6c1,0.1,1.9-0.7,2.1-1.7l0.4-2.6
						C17.8,16.7,15,15,14.5,15.9z"/>
					
						<linearGradient id="Path_176_00000012457172155611130630000009601309846801031309_" gradientUnits="userSpaceOnUse" x1="-275.3842" y1="-106.7912" x2="-274.2442" y2="-106.7912" gradientTransform="matrix(5.19 0 0 4.94 1205.67 544.1)">
						<stop  offset="0" style="stop-color:#27337C"/>
						<stop  offset="1" style="stop-color:#161E3C"/>
					</linearGradient>
					<path id="Path_176" style="fill:url(#Path_176_00000012457172155611130630000009601309846801031309_);" d="M18.4,16.7
						c0.3-0.3,0.3-0.8,0-1.1h0c-0.3-0.4-0.9-0.4-1.3-0.2c-0.1,0.1-0.3,0-0.4-0.1c-0.1-0.1-0.1-0.1-0.2-0.1c-0.2,0-0.4-0.1-0.4-0.3
						l0,0c0-0.4-0.4-0.8-0.8-0.8c-1.1-0.2-1.6,0.9-1.6,1.6s1.2,0.9,1.9,0.8c0.4,0,0.9,0.2,1.1,0.6c0.1,0.1,0.1,0.2,0.1,0.3l-0.2,0.7
						c0.1,0.2,0.2,0.4,0.4,0.6c0.1,0.1,0.2,0.2,0.4,0.2c0.2-0.4,0.8-0.4,1-0.4c0.1,0,0.2,0,0.3-0.1c0.3-0.3,0.3-0.8,0-1.1l-0.1-0.1
						C18.3,17.1,18.3,16.9,18.4,16.7C18.4,16.7,18.4,16.7,18.4,16.7z"/>
					
						<linearGradient id="Path_177_00000182506640294080714730000003681617390971800203_" gradientUnits="userSpaceOnUse" x1="-302.8687" y1="-172.7856" x2="-302.5486" y2="-169.2356" gradientTransform="matrix(10.05 0 0 15.23 3067.75 2650.1799)">
						<stop  offset="0" style="stop-color:#F3EC4B"/>
						<stop  offset="1" style="stop-color:#CC3C61"/>
					</linearGradient>
					<path id="Path_177" style="fill:url(#Path_177_00000182506640294080714730000003681617390971800203_);" d="M19.2,28.3
						c0,0,15.7-4.3,7.9-15.2l-0.5,0.8c0,0,2.3,7.4-5.4,8.1C21.1,21.9,19.1,27.1,19.2,28.3z"/>
					
						<linearGradient id="Path_178_00000057130613754343438200000001754945787729654439_" gradientUnits="userSpaceOnUse" x1="-73.3592" y1="-18.6483" x2="-74.0992" y2="-16.6383" gradientTransform="matrix(2.49 0 0 3.02 185.29 145.58)">
						<stop  offset="0" style="stop-color:#F1B375"/>
						<stop  offset="1" style="stop-color:#E9755E"/>
					</linearGradient>
					<path id="Path_178" style="fill:url(#Path_178_00000057130613754343438200000001754945787729654439_);" d="M27.1,13.1
						c0,0,0.2-2.1-0.9-2.3s-1.4,0.9-1.6,1.4s1.6,1.6,1.9,1.6S27.1,13.1,27.1,13.1z"/>
					
						<linearGradient id="Path_179_00000046329216349923548150000004615589015054599083_" gradientUnits="userSpaceOnUse" x1="-302.867" y1="-172.7557" x2="-302.547" y2="-169.2057" gradientTransform="matrix(10.05 0 0 15.23 3052.05 2650.7102)">
						<stop  offset="0" style="stop-color:#F3EC4B"/>
						<stop  offset="1" style="stop-color:#CC3C61"/>
					</linearGradient>
					<path id="Path_179" style="fill:url(#Path_179_00000046329216349923548150000004615589015054599083_);" d="M13.5,28.8
						c0,0-15.7-4.3-7.9-15.2l0.5,0.8c0,0-2.4,7.4,5.4,8.1C11.6,22.4,13.6,27.6,13.5,28.8z"/>
					
						<linearGradient id="Path_180_00000151532735141854785380000011196102901328998318_" gradientUnits="userSpaceOnUse" x1="-65.8087" y1="-39.2729" x2="-66.5487" y2="-37.2529" gradientTransform="matrix(2.49 0 0 3.02 166.23 146.1099)">
						<stop  offset="0" style="stop-color:#F1B375"/>
						<stop  offset="1" style="stop-color:#E9755E"/>
					</linearGradient>
					<path id="Path_180" style="fill:url(#Path_180_00000151532735141854785380000011196102901328998318_);" d="M5.6,13.6
						c0,0-0.2-2.1,0.9-2.3s1.4,0.9,1.6,1.4s-1.6,1.6-1.9,1.6S5.6,13.6,5.6,13.6z"/>
					
						<linearGradient id="Path_181_00000075856245656055050310000004724851416070856090_" gradientUnits="userSpaceOnUse" x1="-275.8286" y1="-113.3632" x2="-276.5386" y2="-112.3732" gradientTransform="matrix(7.54 0 0 5.25 2101.95 606.1901)">
						<stop  offset="0" style="stop-color:#F3EC4B"/>
						<stop  offset="1" style="stop-color:#CC3C61"/>
					</linearGradient>
					<path id="Path_181" style="fill:url(#Path_181_00000075856245656055050310000004724851416070856090_);" d="M18.9,18.7l-6.6-2.1
						c-0.1,0-0.2-0.2-0.1-0.3c0,0,0,0,0,0c0-0.1,0.1-0.1,0.1-0.1l0.8-0.4c0.8-1.8,2.8-2.7,4.7-2.1c3,0.8,1.7,4.1,1.4,4.9
						C19.1,18.6,19,18.7,18.9,18.7z"/>
				</g>
			</g>
			<g>
				<path class="st12" d="M7.4,9C7.3,9.2,7.1,9.3,6.9,9.4l-2.3,0.7c-0.2,0-0.3,0-0.4-0.1C4,9.9,3.8,9.7,3.8,9.4L3.7,8.9l1.2-0.3
					l0,0.3c0,0.1,0.1,0.1,0.2,0.1l1.1-0.3c0.1,0,0.1-0.1,0.1-0.2L6.3,8c0-0.1-0.1-0.2-0.2-0.1L4.4,8.3C4.2,8.4,4,8.4,3.9,8.2
					C3.8,8.2,3.7,8,3.7,7.8L3.5,6.5c0-0.2,0-0.3,0.1-0.5C3.7,5.9,3.9,5.8,4,5.7l2.3-0.7c0.2-0.1,0.4,0,0.5,0.1C6.9,5.3,7,5.4,7,5.5
					l0.1,0.7L5.9,6.5l0-0.2c0-0.1-0.1-0.1-0.2-0.1L4.8,6.5c-0.1,0-0.1,0.1-0.1,0.2l0.1,0.4c0,0.1,0.1,0.1,0.2,0.1l1.8-0.5
					c0.2-0.1,0.3,0,0.4,0.1C7.2,6.9,7.3,7,7.3,7.2l0.2,1.2C7.5,8.6,7.5,8.8,7.4,9z"/>
				<path class="st12" d="M9.7,5.4l0.2,2.2c0,0.1,0.1,0.1,0.2,0.1l0.8-0.1l0.1,1L9.5,8.9c-0.2,0-0.4,0-0.5-0.2
					C8.9,8.6,8.8,8.4,8.8,8.2L8.5,5.6L7.8,5.7l-0.1-1l0.8-0.1L8.3,3.2L9.5,3l0.1,1.4l1.1-0.2l0.1,1L9.7,5.4z"/>
				<path class="st12" d="M11.5,3.8l-0.1-1.1l1.1-0.1l0.1,1.1L11.5,3.8z M11.7,8.5l-0.2-4.4L12.6,4l0.2,4.4L11.7,8.5z"/>
				<path class="st12" d="M17.2,8c-0.1,0.1-0.3,0.2-0.5,0.3l-2.5,0.1c-0.2,0-0.4-0.1-0.5-0.2c-0.1-0.2-0.2-0.4-0.2-0.6l0-2.9
					c0-0.2,0.1-0.4,0.2-0.5C13.8,4,14,3.9,14.1,3.9l2.5-0.1c0.2,0,0.4,0.1,0.5,0.3c0.1,0.1,0.2,0.3,0.2,0.5l0,0.9l-1.1,0l0-0.4
					c0-0.1-0.1-0.2-0.2-0.2l-1.1,0c-0.1,0-0.2,0.1-0.2,0.2l0,2c0,0.1,0.1,0.2,0.2,0.2l1.1,0c0.1,0,0.2-0.1,0.2-0.2l0-0.5l1.2,0l0,1
					C17.4,7.7,17.3,7.9,17.2,8z"/>
				<path class="st12" d="M20.8,6.1L22,8.6l-1.4-0.1l-1-2l-0.4,0l-0.1,1.9L18,8.3l0.2-5.8l1.2,0.1l-0.1,2.9l0.4,0l1-1.4l1.4,0.1
					L20.8,6.1z"/>
				<path class="st12" d="M26.1,9.2c-0.2,0.1-0.4,0.1-0.6,0.1l-2.3-0.5c-0.2,0-0.4-0.2-0.5-0.4c-0.1-0.2-0.2-0.4-0.2-0.6L22.8,5
					c0-0.3,0.2-0.4,0.4-0.5c0.2-0.1,0.4-0.1,0.6,0l2.2,0.4c0.2,0,0.4,0.2,0.5,0.4c0.1,0.2,0.1,0.4,0.1,0.5L26.4,7
					c0,0.2-0.1,0.3-0.2,0.4c-0.1,0.1-0.3,0.1-0.5,0.1l-2-0.4l-0.1,0.6c0,0.1,0,0.1,0.1,0.1l1.3,0.3c0.1,0,0.1,0,0.1-0.1l0-0.2
					L26.4,8l-0.1,0.7C26.3,9,26.3,9.1,26.1,9.2z M25.3,6c0-0.1,0-0.2-0.1-0.2l-1.1-0.2c-0.1,0-0.2,0-0.2,0.1l0,0.4l1.3,0.3
					c0.1,0,0.1,0,0.1-0.1L25.3,6z"/>
				<path class="st12" d="M29.1,6.9c-0.1,0-0.3,0-0.4,0.1c-0.1,0.1-0.3,0.2-0.3,0.3L28,10l-1.1-0.4l0.7-4.3l1.1,0.4L28.6,6
					c0.1-0.1,0.2-0.2,0.3-0.2s0.3,0,0.5,0l0.9,0.3l-0.2,1L29.1,6.9z"/>
			</g>
		</g>
	</g>
</g>
</svg>
